<?xml version="1.0" standalone="no"?>
<!DOCTYPE svg PUBLIC "-//W3C//DTD SVG 20010904//EN"
 "http://www.w3.org/TR/2001/REC-SVG-20010904/DTD/svg10.dtd">
<svg version="1.0" xmlns="http://www.w3.org/2000/svg"
 width="689.000000pt" height="696.000000pt" viewBox="0 0 689.000000 696.000000"
 preserveAspectRatio="xMidYMid meet">

<g transform="translate(0.000000,696.000000) scale(0.100000,-0.100000)"
fill="#000000" stroke="none">
<path d="M3259 6880 c-48 -25 -113 -98 -139 -156 -31 -68 -25 -151 18 -233 31
-59 43 -119 22 -106 -5 3 -10 17 -10 29 0 31 -63 156 -92 183 -47 44 -118 73
-177 73 -94 -1 -173 -49 -252 -156 -26 -36 -48 -54 -69 -59 l-30 -7 0 -718 0
-718 -96 -144 c-53 -79 -99 -145 -101 -148 -3 -3 -3 31 1 75 6 92 -6 1511 -14
1518 -3 3 -40 -3 -83 -13 -48 -12 -113 -19 -171 -18 -81 0 -100 -3 -152 -28
-77 -36 -175 -134 -192 -190 -18 -60 -15 -282 4 -377 l16 -79 -35 -36 -36 -36
-63 61 c-35 33 -79 68 -98 78 -46 24 -157 31 -216 15 -56 -16 -137 -87 -189
-166 -36 -54 -37 -59 -33 -123 7 -94 43 -165 124 -240 l65 -62 -23 -19 c-61
-51 -76 -53 -314 -46 -250 8 -262 6 -327 -60 -75 -75 -93 -147 -63 -248 18
-61 53 -106 113 -145 l48 -32 110 4 c61 3 132 10 159 16 27 6 51 9 53 7 2 -2
-11 -19 -29 -39 l-33 -35 -235 -1 c-129 -1 -245 -4 -257 -7 -20 -5 -23 -13
-23 -49 0 -80 -21 -75 291 -75 l278 0 16 30 c34 66 142 82 212 31 51 -37 73
-84 73 -155 0 -50 -3 -59 -38 -95 -29 -31 -47 -41 -86 -46 -62 -10 -117 7
-149 45 l-25 30 -249 -10 c-136 -5 -272 -10 -301 -10 -48 0 -53 -2 -64 -27
-16 -41 -22 -139 -9 -147 18 -11 168 -34 296 -46 66 -6 281 -10 477 -8 197 1
361 -1 364 -5 9 -9 -75 -136 -100 -152 -17 -11 -34 -11 -81 -2 -53 9 -192 11
-542 4 -54 -1 -204 0 -333 2 -283 4 -294 1 -371 -93 -55 -68 -74 -120 -65
-184 16 -118 145 -252 243 -252 24 0 43 -3 43 -7 0 -4 -15 -39 -34 -77 -30
-61 -36 -85 -42 -172 -7 -99 -6 -102 16 -114 12 -7 43 -27 67 -46 43 -33 47
-34 138 -34 71 0 94 -3 98 -14 3 -8 -1 -65 -9 -127 -14 -108 -14 -116 6 -180
12 -40 38 -91 64 -127 38 -51 59 -68 128 -104 102 -53 119 -79 105 -166 -4
-31 -12 -104 -16 -162 -4 -58 -13 -118 -20 -134 -16 -38 -7 -59 38 -96 44 -34
84 -39 121 -13 66 46 96 117 85 200 -12 94 -9 173 8 190 13 14 19 9 50 -39 19
-30 62 -76 94 -102 l60 -47 -32 -63 c-17 -34 -47 -84 -66 -111 -33 -46 -34
-51 -34 -139 0 -87 2 -94 38 -158 67 -118 182 -199 260 -184 52 10 125 63 175
128 25 32 50 57 56 55 5 -2 19 -15 30 -30 19 -26 19 -32 8 -125 -7 -53 -12
-122 -12 -152 0 -54 30 -193 49 -228 28 -52 137 -122 163 -106 8 5 9 76 4 251
l-6 243 79 0 79 0 6 -158 c4 -86 6 -209 5 -272 -1 -63 -1 -120 0 -126 0 -7 16
-15 34 -18 19 -3 56 -20 83 -37 54 -35 124 -63 133 -53 3 3 7 294 8 647 1 353
5 664 10 691 l8 49 27 -39 c35 -52 87 -107 121 -129 l27 -17 0 -654 0 -653 73
-21 c39 -12 92 -28 116 -36 25 -7 54 -14 65 -14 l21 0 -7 557 c-4 307 -5 575
-2 595 l6 38 65 -58 c36 -31 82 -71 102 -89 l36 -31 2 -459 c1 -252 5 -481 8
-510 6 -48 9 -53 41 -63 l34 -12 0 -87 c0 -81 2 -91 30 -133 37 -55 120 -135
155 -148 46 -17 124 -12 174 13 57 27 157 130 172 176 7 21 9 60 4 104 l-6 70
53 -46 c34 -29 76 -53 118 -67 112 -38 179 -13 256 96 46 64 46 66 58 179 11
112 20 143 32 111 3 -9 9 -14 13 -11 10 5 37 -60 46 -108 5 -33 12 -41 48 -58
23 -10 57 -19 75 -19 31 0 33 2 28 27 -6 26 -27 376 -23 379 1 1 35 5 75 9 59
6 73 5 71 -6 -4 -19 12 -372 17 -380 8 -13 89 10 105 30 10 12 20 40 24 64 14
96 14 96 56 108 21 7 39 16 39 20 0 4 10 19 23 31 29 32 97 53 134 43 51 -15
167 -11 194 6 13 9 41 22 62 28 100 33 123 91 115 295 -3 72 -1 142 4 156 5
14 25 49 45 77 20 29 42 74 49 100 10 40 13 43 13 18 1 -16 -6 -43 -14 -59
-19 -36 -19 -104 -1 -147 15 -36 14 -44 29 171 2 31 5 35 34 38 22 2 43 15 67
43 20 21 41 39 47 39 6 0 25 -11 42 -24 58 -44 106 -58 172 -51 114 13 190 59
254 156 38 57 41 66 41 131 0 50 -6 80 -21 111 -54 108 -134 173 -234 189 -49
8 -65 15 -65 27 0 31 17 42 74 48 52 5 59 4 84 -20 74 -71 213 -89 309 -42 62
31 127 100 156 163 28 64 28 169 -1 234 -48 107 -158 188 -257 188 l-50 0 3
60 c2 33 8 60 12 60 5 0 31 -14 58 -31 156 -97 370 -36 446 126 47 98 32 193
-44 272 -30 32 -133 106 -158 114 -10 3 -9 9 2 25 15 20 15 20 93 -18 95 -46
151 -50 221 -14 92 48 212 197 212 266 0 70 -116 224 -197 262 -59 28 -155 21
-233 -16 -64 -30 -83 -32 -78 -9 2 11 24 23 62 34 108 32 181 131 192 260 10
121 -28 183 -149 243 -58 29 -85 36 -130 36 -72 0 -142 -27 -208 -79 l-52 -41
-191 0 c-105 0 -201 -3 -213 -6 -20 -6 -23 -2 -23 22 0 15 6 35 14 43 40 47
57 175 34 255 -15 50 -125 161 -205 206 -29 17 -53 32 -53 34 0 2 30 13 68 25
78 24 141 73 194 153 l35 53 -7 96 c-12 141 -72 244 -170 294 -64 33 -115 40
-183 25 -143 -29 -226 -140 -242 -321 -6 -59 -8 -66 -26 -62 -20 6 -49 55 -49
85 0 10 -4 18 -10 18 -5 0 -10 10 -10 23 0 32 -37 64 -83 72 -21 4 -43 13 -50
19 -8 8 -48 12 -115 12 -77 -1 -105 2 -111 13 -6 9 -18 11 -34 7 -14 -3 -39 0
-56 7 -30 13 -31 14 -14 29 10 9 21 16 25 15 11 -3 55 62 89 132 31 61 32 66
27 165 -4 62 -3 84 2 56 18 -104 31 -131 88 -190 71 -73 135 -95 249 -88 88 6
134 33 196 113 97 128 91 295 -15 410 -70 76 -113 97 -215 103 -75 4 -88 2
-138 -23 -70 -34 -129 -105 -151 -183 -18 -62 -44 -109 -44 -80 0 9 -20 40
-43 70 -29 35 -42 60 -40 73 11 48 14 431 4 457 -12 31 -58 48 -106 38 -29 -6
-30 -8 -36 -75 -4 -39 -7 -139 -8 -223 l-1 -153 -62 3 -63 3 -5 230 c-3 127
-7 231 -8 233 -1 1 -24 2 -51 2 -42 0 -49 -3 -55 -22 -10 -38 -7 -254 6 -373
l11 -112 -46 -48 c-26 -26 -47 -52 -47 -56 0 -22 -17 -5 -32 34 -47 114 -48
246 -4 354 14 33 31 96 38 139 l13 78 -32 65 c-35 69 -90 133 -134 157 -77 40
-187 35 -260 -12 -86 -54 -154 -215 -132 -313 18 -85 16 -80 81 -143 23 -23
40 -43 37 -46 -2 -3 -11 1 -19 7 -11 10 -17 8 -26 -6 -10 -16 -11 -16 -6 0 3
9 0 17 -6 17 -6 0 -9 3 -5 6 3 3 2 11 -3 18 -50 61 -62 79 -74 113 -7 21 -14
64 -15 96 -1 47 5 67 30 113 42 74 50 167 21 236 -25 57 -90 123 -145 149 -56
25 -150 25 -198 -1z m159 -176 c33 -23 55 -72 49 -110 -19 -118 -100 -159
-169 -86 -45 47 -51 65 -38 113 17 61 55 99 99 99 20 0 47 -7 59 -16z m492
-207 c35 -18 70 -74 70 -113 0 -75 -43 -114 -126 -114 -39 0 -51 5 -80 34 -41
41 -44 79 -13 142 28 58 92 80 149 51z m-969 -20 c19 -12 39 -34 46 -47 8 -18
12 -180 15 -558 l3 -533 -60 -55 c-101 -91 -126 -109 -134 -95 -7 11 -20 638
-22 1071 -1 169 6 201 50 225 37 20 63 18 102 -8z m476 -278 c65 -24 106 -88
106 -164 0 -64 -18 -103 -62 -132 -91 -61 -233 5 -248 116 -17 123 95 221 204
180z m268 -78 c3 -5 1 -12 -5 -16 -5 -3 -10 1 -10 9 0 18 6 21 15 7z m-1611
-17 c8 -21 8 -318 0 -366 l-7 -38 -79 0 -79 0 3 179 c3 162 5 181 23 201 25
28 51 39 96 39 25 1 39 -4 43 -15z m1879 -101 c3 -54 3 -203 0 -331 -6 -231
-6 -233 -27 -228 -12 3 -48 6 -82 6 l-61 0 -6 153 c-3 83 -3 230 1 325 l5 172
82 0 82 0 6 -97z m1100 -117 c18 -7 47 -30 65 -50 27 -31 32 -45 32 -86 0 -60
-10 -87 -45 -122 -24 -24 -36 -28 -83 -28 -104 0 -158 61 -150 171 5 67 30
103 82 118 45 13 63 13 99 -3z m-593 -92 c91 -46 131 -153 90 -239 -31 -64
-80 -95 -150 -95 -136 1 -217 123 -161 245 44 95 136 133 221 89z m-1002 -220
l3 -131 -47 -7 c-26 -3 -62 -6 -80 -6 l-34 0 0 138 0 138 78 0 77 -1 3 -131z
m-1445 -45 c140 -38 183 -213 77 -314 -28 -27 -37 -30 -99 -30 -57 0 -74 4
-110 28 -123 81 -102 263 36 312 47 17 49 17 96 4z m-541 -28 c28 -25 32 -35
36 -93 4 -61 2 -68 -24 -97 -57 -63 -152 -47 -199 34 -38 63 -32 95 28 163 16
17 31 22 74 22 44 0 58 -5 85 -29z m4018 -236 c16 -8 41 -31 57 -51 22 -30 27
-46 27 -89 -2 -102 -69 -163 -166 -152 -66 8 -104 33 -129 84 -63 130 83 274
211 208z m-1398 -65 c129 -27 216 -59 373 -135 145 -72 224 -127 401 -283
l122 -107 -62 -66 c-35 -36 -91 -104 -126 -150 -35 -46 -98 -123 -138 -172
l-75 -88 -19 33 c-35 58 -184 194 -285 261 -102 67 -203 113 -313 143 -95 26
-312 26 -400 0 -188 -56 -322 -130 -447 -250 -119 -113 -181 -195 -243 -321
-47 -94 -49 -100 -30 -107 11 -4 422 -6 914 -4 l895 4 -38 -51 c-22 -29 -76
-113 -122 -187 -45 -74 -104 -167 -130 -206 l-48 -72 -898 -1 c-494 -1 -1131
1 -1416 5 l-517 7 31 56 c17 31 70 108 118 171 47 63 108 151 136 196 l49 80
386 0 c212 -1 397 2 411 6 21 6 30 20 47 70 l20 63 -22 12 c-31 16 -256 36
-330 28 -83 -8 -91 -1 -70 61 56 166 293 485 481 648 262 228 506 338 839 376
126 14 394 4 506 -20z m-2374 -74 c48 -51 51 -56 42 -87 -14 -49 -31 -89 -39
-89 -3 0 -26 23 -50 51 -24 28 -65 67 -92 88 l-48 39 22 20 c23 21 45 29 88
31 19 1 39 -13 77 -53z m362 -302 l0 -194 -90 0 -89 0 -3 193 -3 192 93 1 92
1 0 -193z m-573 137 c50 -36 88 -117 79 -170 -11 -68 -68 -120 -139 -128 -60
-7 -84 0 -146 42 l-51 36 -46 -16 c-34 -12 -92 -15 -253 -15 -196 0 -210 1
-235 21 -21 17 -26 29 -26 64 0 37 5 48 25 61 23 15 39 15 168 4 183 -16 346
-10 359 14 61 109 181 148 265 87z m3786 -133 l38 -26 -47 -16 c-56 -19 -94
-20 -129 -4 -29 13 -30 20 -10 51 8 12 15 39 17 59 l2 37 45 -38 c26 -21 63
-49 84 -63z m145 -212 c64 -33 108 -113 97 -176 -15 -87 -123 -126 -223 -80
-95 43 -105 179 -18 252 26 21 106 24 144 4z m-3869 -98 c-8 -8 -41 -14 -79
-15 l-65 -1 63 7 c35 5 68 13 74 19 7 7 14 10 16 7 2 -2 -2 -10 -9 -17z m480
-134 c41 -9 41 -32 -4 -115 l-35 -66 -136 -6 c-173 -9 -343 -9 -412 0 l-53 6
2 78 c2 60 6 80 18 85 34 14 563 29 620 18z m4348 -204 c54 -33 78 -102 52
-153 -72 -141 -249 -97 -249 61 0 47 4 58 31 83 26 24 40 29 83 29 33 0 62 -7
83 -20z m-608 -110 c157 -5 288 -13 291 -17 11 -12 60 -140 60 -156 0 -9 -13
-18 -31 -22 -25 -6 -349 0 -1096 18 l-83 2 31 45 c16 25 41 69 55 99 l24 54
233 -7 c127 -3 360 -11 516 -16z m838 -416 c19 -14 41 -41 50 -59 14 -29 14
-38 3 -66 -31 -74 -90 -111 -154 -95 -34 8 -106 82 -106 108 1 41 38 107 72
128 41 26 87 21 135 -16z m-6152 -14 c64 -9 197 -11 455 -7 l365 5 -32 -37
c-18 -20 -49 -61 -71 -91 l-38 -55 -197 -3 c-109 -1 -271 2 -360 6 -129 7
-168 6 -194 -4 -18 -8 -50 -14 -72 -14 -33 0 -48 7 -81 38 -54 53 -54 97 4
160 23 26 39 27 221 2z m4820 -3 c160 1 457 -1 661 -4 l371 -5 6 -74 c4 -40 8
-79 9 -86 4 -17 -470 -25 -1140 -19 l-464 3 30 32 c37 40 87 114 97 144 7 22
9 23 73 16 37 -4 198 -7 357 -7z m-975 -401 c0 -5 -6 -17 -13 -25 -8 -9 -35
-52 -62 -96 -26 -44 -93 -143 -149 -220 -57 -77 -105 -147 -108 -156 -6 -16
-72 -17 -775 -20 -422 -2 -974 -2 -1225 0 l-457 3 14 28 c15 30 85 134 196
291 36 52 80 119 98 149 l33 55 1224 0 c740 0 1224 -4 1224 -9z m1350 -56 c25
-13 53 -41 76 -75 33 -49 36 -60 32 -104 -9 -92 -83 -161 -174 -161 -78 0
-127 25 -176 90 l-27 35 -243 -6 c-141 -3 -270 -11 -308 -19 -73 -15 -111 -9
-141 21 -15 15 -19 28 -14 52 25 131 44 153 127 145 38 -4 55 -11 69 -29 16
-21 27 -24 141 -30 67 -4 180 -8 250 -8 127 -1 128 -1 145 26 49 75 162 104
243 63z m-4144 -16 c-2 -7 -34 -50 -70 -96 l-66 -83 -290 -3 c-160 -2 -385 -1
-500 3 l-210 8 0 87 c0 48 3 89 6 92 3 3 259 5 570 5 435 -1 564 -4 560 -13z
m4828 -55 c59 -46 71 -110 30 -159 -36 -43 -79 -63 -118 -56 -39 7 -91 59
-108 106 l-13 35 -5 -35 -5 -35 -137 -3 c-153 -3 -146 -7 -140 74 l4 43 65 7
c97 10 195 -2 212 -26 13 -19 14 -18 35 13 12 17 33 37 46 44 39 20 103 16
134 -8z m-5424 -389 c22 -11 52 -39 67 -62 23 -34 28 -53 28 -104 0 -56 -3
-66 -30 -94 -41 -43 -94 -57 -153 -41 -96 25 -148 89 -140 173 12 117 125 180
228 128z m3854 -293 l208 -203 -123 -116 c-147 -137 -194 -175 -314 -252 -171
-109 -354 -182 -583 -232 -155 -34 -477 -16 -648 37 -102 31 -347 143 -415
190 -213 143 -330 252 -462 427 -59 79 -133 210 -124 219 3 3 166 6 362 8
l356 4 77 -71 c271 -251 611 -325 924 -200 140 56 271 147 430 299 53 51 98
93 100 93 2 0 97 -91 212 -203z m1330 69 c44 -26 86 -88 86 -127 0 -34 -34
-86 -69 -104 -42 -21 -107 -19 -147 6 -96 59 -43 245 70 248 11 1 38 -10 60
-23z m-581 -8 c18 -11 46 -36 62 -55 24 -26 39 -34 72 -37 51 -4 73 -20 73
-53 0 -18 -9 -28 -35 -39 -19 -7 -45 -14 -59 -14 -17 0 -30 -10 -44 -34 -29
-49 -74 -70 -147 -70 -153 1 -230 132 -150 255 30 46 77 68 143 69 39 0 63 -6
85 -22z m-3458 -225 c-4 -131 -8 -244 -11 -250 -2 -9 -27 -13 -77 -13 l-74 0
-7 61 c-3 34 -6 147 -6 250 l0 189 90 0 91 0 -6 -237z m-578 111 c51 -38 73
-81 73 -143 0 -89 -50 -149 -136 -166 -45 -8 -125 27 -164 72 -26 30 -30 41
-30 96 0 72 21 116 72 148 44 27 144 23 185 -7z m4312 -465 c33 -24 61 -74 61
-108 0 -67 -63 -131 -129 -131 -43 0 -103 34 -124 70 -37 62 -9 157 56 186 42
19 97 12 136 -17z m-4135 -62 c11 -11 10 -17 -4 -35 -10 -12 -23 -22 -29 -22
-10 0 -36 39 -29 44 5 5 43 25 46 26 2 0 9 -6 16 -13z m380 -47 c180 -88 76
-388 -115 -331 -46 14 -94 53 -114 92 -20 38 -19 123 2 166 22 48 94 93 147
93 22 0 58 -9 80 -20z m2987 -52 c84 -28 129 -90 129 -178 0 -60 -15 -92 -64
-139 -23 -23 -32 -38 -26 -46 10 -12 19 -509 9 -519 -9 -10 -86 10 -116 29
l-26 17 5 212 c5 222 11 250 51 265 20 8 17 10 -21 21 -138 42 -193 194 -105
291 48 53 101 69 164 47z m-3533 -33 c17 -14 40 -45 51 -68 17 -35 19 -49 11
-79 -13 -47 -42 -82 -84 -102 -55 -26 -84 -21 -127 23 -34 34 -39 45 -39 84 0
54 12 90 46 134 22 28 31 33 69 33 32 0 51 -7 73 -25z m2958 -284 c18 -11 45
-36 60 -57 25 -33 29 -46 29 -105 0 -53 -5 -74 -21 -95 -86 -116 -246 -100
-305 31 -40 88 -12 171 76 226 40 25 120 25 161 0z m-1068 -72 l51 -21 7 -57
c8 -62 -3 -653 -12 -688 -6 -21 -10 -22 -63 -17 -88 10 -87 9 -94 130 -9 140
-9 659 0 667 12 13 61 7 111 -14z m542 -447 l0 -449 -25 -11 c-42 -19 -99 -15
-121 9 -17 19 -20 45 -25 298 -4 152 -7 349 -8 439 l-1 162 90 0 90 0 0 -448z
m-503 -468 c64 -69 69 -131 17 -193 -36 -43 -88 -56 -134 -32 -94 48 -116 161
-46 236 28 29 40 35 76 35 39 0 48 -5 87 -46z"/>
<path d="M5936 5006 c-51 -19 -130 -98 -161 -160 -28 -57 -33 -131 -13 -216
10 -43 21 -60 78 -114 77 -72 126 -91 218 -84 108 8 215 101 248 216 17 57 15
112 -6 186 -15 49 -89 129 -145 156 -57 28 -166 35 -219 16z m154 -161 c65
-34 86 -97 55 -171 -20 -47 -91 -81 -138 -65 -42 15 -84 57 -98 98 -9 27 -7
40 8 70 34 71 110 101 173 68z"/>
</g>
</svg>
